<?xml version="1.0" encoding="UTF-8" standalone="no"?>
<svg width="35px" height="35px" viewBox="0 0 35 35" version="1.1" xmlns="http://www.w3.org/2000/svg" xmlns:xlink="http://www.w3.org/1999/xlink">
    <!-- Generator: Sketch 49.2 (51160) - http://www.bohemiancoding.com/sketch -->
    <title>instagram</title>
    <desc>Created with Sketch.</desc>
    <defs>
        <polygon id="path-1" points="0 0.0531218274 34.9468782 0.0531218274 34.9468782 34.9999289 0 34.9999289"></polygon>
    </defs>
    <g id="instagram" stroke="none" stroke-width="1" fill="none" fill-rule="evenodd">
        <g id="Page-1">
            <g id="Group-3">
                <mask id="mask-2" fill="#e80c46">
                    <use xlink:href="#path-1"></use>
                </mask>
                <g id="Clip-2"></g>
                <path d="M17.4734746,33.4116041 C8.70020051,33.4116041 1.58844924,26.2998528 1.58844924,17.5265787 C1.58844924,8.75330457 8.70020051,1.6415533 17.4734746,1.6415533 C26.2467487,1.6415533 33.3585,8.75330457 33.3585,17.5265787 C33.3585,26.2998528 26.2467487,33.4116041 17.4734746,33.4116041 M17.4734746,0.0530507614 C7.82342386,0.0530507614 -5.32994924e-05,7.87635025 -5.32994924e-05,17.5265787 C-5.32994924e-05,27.1766294 7.82342386,34.9999289 17.4734746,34.9999289 C27.1235254,34.9999289 34.9470025,27.1766294 34.9470025,17.5265787 C34.9470025,7.87635025 27.1235254,0.0530507614 17.4734746,0.0530507614" id="Fill-1" fill="#f8fbff" mask="url(#mask-2)"></path>
            </g>
            <path d="M26.0820169,22.5346106 C26.0820169,24.6726521 24.3424634,26.4122055 22.2044219,26.4122055 L12.7955781,26.4122055 C10.6575366,26.4122055 8.91798314,24.6726521 8.91798314,22.5346106 L8.91798314,13.1257668 C8.91798314,10.9877253 10.6575366,9.24817182 12.7955781,9.24817182 L22.2044219,9.24817182 C24.3424634,9.24817182 26.0820169,10.9877253 26.0820169,13.1257668 L26.0820169,22.5346106 Z M22.2044219,7.59433962 L12.7955781,7.59433962 C9.7456121,7.59433962 7.26415094,10.0758008 7.26415094,13.1257668 L7.26415094,22.5346106 C7.26415094,25.5845766 9.7456121,28.0660377 12.7955781,28.0660377 L22.2044219,28.0660377 C25.2543879,28.0660377 27.7358491,25.5845766 27.7358491,22.5346106 L27.7358491,13.1257668 C27.7358491,10.0758008 25.2543879,7.59433962 22.2044219,7.59433962 Z" id="Fill-4" fill="#e80c46"></path>
            <path d="M17.9336781,20.7545778 C17.1524475,20.8704983 16.3730111,20.6750844 15.7387322,20.2045838 C15.1042739,19.7340832 14.6912301,19.0446616 14.5753194,18.2633651 C14.4595882,17.4822479 14.6548062,16.7025663 15.125267,16.0682339 C15.5959074,15.4339015 16.2850913,15.0208228 17.0663219,14.9049023 C17.2102234,14.8835486 17.355022,14.8729614 17.5,14.8729614 C17.6447986,14.8729614 17.7897766,14.8835486 17.9336781,14.9049023 C19.2309444,15.0974451 20.232154,16.0983804 20.4245011,17.3959356 C20.663679,19.008773 19.5461998,20.5153798 17.9336781,20.7545778 M20.7681062,14.5612682 C20.0615178,13.854979 19.1659913,13.4040377 18.1778799,13.2576119 C17.7280533,13.1908589 17.2719467,13.1908589 16.8221201,13.2576119 C15.6007519,13.4386703 14.5232852,14.0844871 13.7879883,15.0760913 C13.0525118,16.0676956 12.747125,17.2864752 12.9283475,18.507767 C13.1092112,19.7288793 13.7551529,20.8066164 14.746494,21.5421549 C15.5515886,22.1391631 16.5061469,22.4528302 17.4901314,22.4528302 C17.7183642,22.4528302 17.9480324,22.4359625 18.1778799,22.4018683 C19.3990687,22.2206304 20.4767148,21.5748136 21.2120117,20.5832094 C21.9474882,19.5917846 22.252875,18.373005 22.0716525,17.1517132 C21.9252391,16.1635184 21.4743358,15.2677369 20.7681062,14.5612682" id="Fill-6" fill="#e80c46"></path>
            <path d="M22.6179245,11.5566038 C22.4007513,11.5566038 22.1880247,11.6446565 22.0343493,11.7983484 C21.880496,11.9522183 21.7924528,12.1644341 21.7924528,12.3821644 C21.7924528,12.5995389 21.880496,12.8121106 22.0343493,12.9658025 C22.1880247,13.1194945 22.4007513,13.2075472 22.6179245,13.2075472 C22.8350978,13.2075472 23.0478244,13.1194945 23.2014998,12.9658025 C23.355353,12.8121106 23.4433962,12.5991832 23.4433962,12.3821644 C23.4433962,12.1647899 23.355353,11.9520404 23.2014998,11.7983484 C23.0478244,11.6446565 22.8350978,11.5566038 22.6179245,11.5566038" id="Fill-8" fill="#e80c46"></path>
        </g>
    </g>
</svg>